# xmcd
#
# Track frame offsets:
#	150
#	19895
#	34788
#	53805
#	71078
#	80823
#	93513
#	113085
#	129818
#	143684
#	157268
#	175265
#	191011
#	208903
#	224270
#	241269
#	256260
#	272981
#	290354
#	305789
#	323047
#	335666
#
# Disc length: 4703 seconds
#
# Revision: 2
# Processed by: cddbd v1.5.2PL0 Copyright (c) Steve Scherf et al.
# Submitted via: audiograbber 1.83.01
#
DISCID=54125d16
DTITLE=Various Artist - CDX 407
DYEAR=2006
DGENRE=Country
TTITLE0=Jason Michael Carroll - Alyssa Lies
TTITLE1=Jimmy Buffett - Bama Breeze [Single Edit Version]
TTITLE2=Pat Green - Dixie Lullaby
TTITLE3=Brooks and Dunn - Hillbilly Deluxe
TTITLE4=Waylon Jennings - Honky Tonkin'
TTITLE5=Donovan Chapman - House Like That
TTITLE6=Darryl Worley - I Just Came Back (From A War)
TTITLE7=Josh Gracin - I Keep Coming Back
TTITLE8=Danielle Peck - Isn't That Everything
TTITLE9=George Strait - It Just Comes Natural
TTITLE10=Jake Owen - Startin' With me
TTITLE11=Mark Wills - Take It All Out On Me
TTITLE12=Carolyn Dawn Johnson - Taking Back My Brave
TTITLE13=Jimmy Wayne - That's All I'll Ever Need
TTITLE14=Kenny Rogers - The Last Ten Years (Superman)
TTITLE15=Little Texas - Your Woman
TTITLE16=Brityn Lotz - Back To Lafayette [Radio Version]
TTITLE17=Joey Daniels - Do It Again
TTITLE18=Keith Bryant - Live It Slow
TTITLE19=Derek Sholl - Pray For Me
TTITLE20=Carrie Hassler and Hard Rain - Seven Miles From Wichita
TTITLE21=Daniel Smith - What U See Is What U Get
EXTD=
EXTT0=
EXTT1=
EXTT2=
EXTT3=
EXTT4=
EXTT5=
EXTT6=
EXTT7=
EXTT8=
EXTT9=
EXTT10=
EXTT11=
EXTT12=
EXTT13=
EXTT14=
EXTT15=
EXTT16=
EXTT17=
EXTT18=
EXTT19=
EXTT20=
EXTT21=
PLAYORDER=
